<svg width="28" height="28" viewBox="0 0 28 28" fill="none" xmlns="http://www.w3.org/2000/svg">
<g filter="url(#filter0_d_2518_34756)">
<path d="M14 15.7513C13.1849 15.7513 12.495 15.469 11.9303 14.9043C11.3656 14.3396 11.0833 13.6497 11.0833 12.8346V5.83464C11.0833 5.01952 11.3656 4.32963 11.9303 3.76497C12.495 3.2003 13.1849 2.91797 14 2.91797C14.8151 2.91797 15.505 3.2003 16.0696 3.76497C16.6343 4.32963 16.9166 5.01952 16.9166 5.83464V12.8346C16.9166 13.6497 16.6343 14.3396 16.0696 14.9043C15.505 15.469 14.8151 15.7513 14 15.7513ZM13.125 23.3346V20.364C11.3884 20.1635 9.90012 19.4501 8.66015 18.2238C7.42037 16.9972 6.69422 15.5022 6.48169 13.7388C6.45038 13.4905 6.51543 13.2778 6.67681 13.1006C6.8384 12.9233 7.04334 12.8346 7.29165 12.8346C7.53995 12.8346 7.74781 12.9203 7.91523 13.0916C8.08284 13.2627 8.19436 13.4724 8.24977 13.7207C8.46211 15.1493 9.11534 16.3309 10.2095 17.2656C11.3036 18.2005 12.5671 18.668 14 18.668C15.4523 18.668 16.7206 18.1957 17.8051 17.2511C18.8895 16.3066 19.5379 15.1299 19.7502 13.7207C19.8056 13.4724 19.9171 13.2627 20.0847 13.0916C20.2521 12.9203 20.46 12.8346 20.7083 12.8346C20.9566 12.8346 21.1616 12.9233 21.3231 13.1006C21.4845 13.2778 21.5496 13.4905 21.5183 13.7388C21.3057 15.4633 20.5845 16.9467 19.3544 18.189C18.1241 19.4312 16.631 20.1561 14.875 20.364V23.3346C14.875 23.5829 14.7912 23.7908 14.6236 23.9582C14.4561 24.1258 14.2483 24.2096 14 24.2096C13.7517 24.2096 13.5438 24.1258 13.3764 23.9582C13.2088 23.7908 13.125 23.5829 13.125 23.3346Z" fill="white"/>
</g>
<defs>
<filter id="filter0_d_2518_34756" x="4.14073" y="0.584635" width="19.7185" height="25.9596" filterUnits="userSpaceOnUse" color-interpolation-filters="sRGB">
<feFlood flood-opacity="0" result="BackgroundImageFix"/>
<feColorMatrix in="SourceAlpha" type="matrix" values="0 0 0 0 0 0 0 0 0 0 0 0 0 0 0 0 0 0 127 0" result="hardAlpha"/>
<feOffset/>
<feGaussianBlur stdDeviation="1.16667"/>
<feComposite in2="hardAlpha" operator="out"/>
<feColorMatrix type="matrix" values="0 0 0 0 0 0 0 0 0 0 0 0 0 0 0 0 0 0 0.25 0"/>
<feBlend mode="normal" in2="BackgroundImageFix" result="effect1_dropShadow_2518_34756"/>
<feBlend mode="normal" in="SourceGraphic" in2="effect1_dropShadow_2518_34756" result="shape"/>
</filter>
</defs>
</svg>
