<svg width="12" height="17" viewBox="0 0 12 17" fill="none" xmlns="http://www.w3.org/2000/svg">
<g filter="url(#filter0_d_2932_2912)">
<path d="M5.87566 9.66667C5.29344 9.66667 4.80066 9.465 4.39732 9.06167C3.99399 8.65833 3.79232 8.16556 3.79232 7.58333V2.58333C3.79232 2.00111 3.99399 1.50833 4.39732 1.105C4.80066 0.701666 5.29344 0.5 5.87566 0.5C6.45788 0.5 6.95066 0.701666 7.35399 1.105C7.75732 1.50833 7.95899 2.00111 7.95899 2.58333V7.58333C7.95899 8.16556 7.75732 8.65833 7.35399 9.06167C6.95066 9.465 6.45788 9.66667 5.87566 9.66667ZM5.25066 15.0833V12.9615C4.01024 12.8183 2.94719 12.3087 2.06149 11.4327C1.17594 10.5566 0.657255 9.48875 0.505449 8.22917C0.483088 8.05181 0.529547 7.89986 0.644824 7.77333C0.760241 7.64667 0.90663 7.58333 1.08399 7.58333C1.26135 7.58333 1.40982 7.64451 1.52941 7.76687C1.64913 7.8891 1.72878 8.03889 1.76837 8.21625C1.92003 9.23667 2.38663 10.0807 3.16816 10.7483C3.94969 11.4161 4.85219 11.75 5.87566 11.75C6.91302 11.75 7.81899 11.4126 8.59357 10.7379C9.36816 10.0633 9.83128 9.22278 9.98295 8.21625C10.0225 8.03889 10.1022 7.8891 10.2219 7.76687C10.3415 7.64451 10.49 7.58333 10.6673 7.58333C10.8447 7.58333 10.9911 7.64667 11.1065 7.77333C11.2218 7.89986 11.2682 8.05181 11.2459 8.22917C11.0941 9.46097 10.5789 10.5206 9.70024 11.4079C8.82149 12.2951 7.75496 12.813 6.50066 12.9615V15.0833C6.50066 15.2607 6.4408 15.4092 6.32107 15.5287C6.20149 15.6485 6.05302 15.7083 5.87566 15.7083C5.6983 15.7083 5.54982 15.6485 5.43024 15.5287C5.31052 15.4092 5.25066 15.2607 5.25066 15.0833Z" fill="white"/>
</g>
<defs>
<filter id="filter0_d_2932_2912" x="0" y="0" width="11.751" height="16.207" filterUnits="userSpaceOnUse" color-interpolation-filters="sRGB">
<feFlood flood-opacity="0" result="BackgroundImageFix"/>
<feColorMatrix in="SourceAlpha" type="matrix" values="0 0 0 0 0 0 0 0 0 0 0 0 0 0 0 0 0 0 127 0" result="hardAlpha"/>
<feOffset/>
<feGaussianBlur stdDeviation="0.25"/>
<feComposite in2="hardAlpha" operator="out"/>
<feColorMatrix type="matrix" values="0 0 0 0 0 0 0 0 0 0 0 0 0 0 0 0 0 0 0.25 0"/>
<feBlend mode="normal" in2="BackgroundImageFix" result="effect1_dropShadow_2932_2912"/>
<feBlend mode="normal" in="SourceGraphic" in2="effect1_dropShadow_2932_2912" result="shape"/>
</filter>
</defs>
</svg>
