<svg width="27" height="27" viewBox="0 0 27 27" fill="none" xmlns="http://www.w3.org/2000/svg">
<g filter="url(#filter0_d_2893_3023)">
<path d="M19.2748 15.6341C19.0698 15.5234 18.934 15.347 18.8673 15.1047C18.8008 14.8624 18.8229 14.6388 18.9335 14.4339C19.0473 14.2349 19.1348 14.0233 19.196 13.7989C19.2575 13.5745 19.3039 13.3472 19.3352 13.117C19.3906 12.8687 19.502 12.6619 19.6694 12.4966C19.837 12.3313 20.045 12.2487 20.2933 12.2487C20.5416 12.2487 20.7464 12.3392 20.9078 12.5202C21.0694 12.7011 21.1382 12.9156 21.1143 13.1639C21.071 13.5289 20.9988 13.8898 20.8979 14.2466C20.797 14.6032 20.656 14.9423 20.475 15.2639C20.3644 15.4765 20.1897 15.619 19.9512 15.6915C19.7126 15.7641 19.4871 15.7449 19.2748 15.6341ZM14.9669 10.7769L11.2831 7.07045C11.0916 6.87892 10.9413 6.65346 10.8322 6.39407C10.7229 6.13449 10.6683 5.86412 10.6683 5.58295V5.2487C10.6683 4.43359 10.9506 3.7437 11.5153 3.17903C12.08 2.61436 12.7698 2.33203 13.585 2.33203C14.4001 2.33203 15.09 2.61436 15.6546 3.17903C16.2193 3.7437 16.5016 4.43359 16.5016 5.2487V10.1329C16.5016 10.5384 16.3176 10.8189 15.9495 10.9744C15.5816 11.13 15.2541 11.0641 14.9669 10.7769ZM12.71 22.7487V19.7827C10.9734 19.5792 9.48509 18.8642 8.24512 17.6378C7.00515 16.4113 6.27899 14.9163 6.06666 13.1529C6.03535 12.9046 6.1004 12.6918 6.26178 12.5147C6.42337 12.3374 6.62831 12.2487 6.87662 12.2487C7.12492 12.2487 7.33278 12.3344 7.5002 12.5057C7.66781 12.6768 7.77923 12.8865 7.83445 13.1348C8.04698 14.5634 8.70031 15.745 9.79445 16.6797C10.8886 17.6146 12.1521 18.082 13.585 18.082C14.3357 18.082 15.0413 17.9482 15.7019 17.6804C16.3622 17.4127 16.9466 17.0418 17.4551 16.5677L18.7025 17.8149C18.1386 18.3445 17.497 18.7806 16.7775 19.123C16.0581 19.4656 15.2856 19.6855 14.46 19.7827V22.7487C14.46 22.997 14.3761 23.2049 14.2085 23.3723C14.0411 23.5399 13.8333 23.6237 13.585 23.6237C13.3366 23.6237 13.1287 23.5399 12.9611 23.3723C12.7937 23.2049 12.71 22.997 12.71 22.7487ZM22.5639 24.1353L2.57337 4.14474C2.41178 3.98316 2.32915 3.78016 2.32545 3.53574C2.32176 3.29113 2.4044 3.08434 2.57337 2.91536C2.74234 2.74639 2.94728 2.66191 3.1882 2.66191C3.42892 2.66191 3.63377 2.74639 3.80274 2.91536L23.7933 22.9056C23.9549 23.0672 24.0375 23.2703 24.0412 23.5149C24.0449 23.7593 23.9623 23.9661 23.7933 24.1353C23.6243 24.3043 23.4194 24.3887 23.1785 24.3887C22.9377 24.3887 22.7329 24.3043 22.5639 24.1353Z" fill="white"/>
</g>
<defs>
<filter id="filter0_d_2893_3023" x="-0.00800061" y="-0.001302" width="26.3827" height="26.7253" filterUnits="userSpaceOnUse" color-interpolation-filters="sRGB">
<feFlood flood-opacity="0" result="BackgroundImageFix"/>
<feColorMatrix in="SourceAlpha" type="matrix" values="0 0 0 0 0 0 0 0 0 0 0 0 0 0 0 0 0 0 127 0" result="hardAlpha"/>
<feOffset/>
<feGaussianBlur stdDeviation="1.16667"/>
<feComposite in2="hardAlpha" operator="out"/>
<feColorMatrix type="matrix" values="0 0 0 0 0 0 0 0 0 0 0 0 0 0 0 0 0 0 0.25 0"/>
<feBlend mode="normal" in2="BackgroundImageFix" result="effect1_dropShadow_2893_3023"/>
<feBlend mode="normal" in="SourceGraphic" in2="effect1_dropShadow_2893_3023" result="shape"/>
</filter>
</defs>
</svg>
