<svg width="24" height="20" viewBox="0 0 24 20" fill="none" xmlns="http://www.w3.org/2000/svg">
<path d="M8.6234 1.98903C15.1269 0.476469 19.1776 1.90025 19.1776 1.90025L23.6388 0.410984C23.6398 0.396503 23.6408 0.381832 23.6416 0.36758C23.3567 0.275527 17.7054 -1.05407 8.6234 1.98903Z" fill="#373131"/>
<path d="M8.62556 1.9886C6.01787 2.86234 3.12759 4.09628 0 5.82388C4.63016 4.5188 8.55757 3.81278 13.3681 3.83988L19.1798 1.89982C19.1798 1.89982 15.129 0.476037 8.62556 1.9886Z" fill="#373131"/>
<path d="M5.83357 18.1336C18.9426 11.9847 23.4411 3.53691 23.6402 0.410158L19.179 1.89942C19.179 1.89942 19.7725 8.96624 5.83357 18.1336Z" fill="#373131"/>
<path d="M19.1804 1.89926L13.3687 3.83933C13.2176 8.0982 10.4642 12.7138 1.37727 20C2.96319 19.4096 4.44717 18.7843 5.83496 18.1334C19.7739 8.96605 19.1804 1.89926 19.1804 1.89926Z" fill="#373131"/>
</svg>
